# xmcd CD database file
#
# Track frame offsets:
#	150
#	23657
#	43976
#	72116
#	94540
#	121971
#	139610
#	168427
#
# Disc length: 2540 seconds
#
# Revision: 2
# Processed by: cddbd v1.5.2PL0 Copyright (c) Steve Scherf et al.
# Submitted via: CDex 1.70beta2
#
DISCID=6309ea08
DTITLE=纐纈歩美 - Art
DYEAR=2016
DGENRE=Jazz
TTITLE0=Cool Bunny
TTITLE1=Straight Life
TTITLE2=Imagination
TTITLE3=Diane's Dilemma
TTITLE4=Besame Mucho
TTITLE5=Holiday Flight
TTITLE6=Patricia
TTITLE7=When You're Smiling
EXTD=YEAR: 2016
EXTT0=
EXTT1=
EXTT2=
EXTT3=
EXTT4=
EXTT5=
EXTT6=
EXTT7=
PLAYORDER=
